<?xml version="1.0" encoding="UTF-8"?>
<svg width="48px" height="48px" viewBox="0 0 48 48" version="1.1" xmlns="http://www.w3.org/2000/svg" xmlns:xlink="http://www.w3.org/1999/xlink">
    <!-- Generator: Sketch 51.1 (57501) - http://www.bohemiancoding.com/sketch -->
    <title>bagelICO</title>
    <desc>Created with Sketch.</desc>
    <defs></defs>
    <g id="bagelICO" stroke="none" stroke-width="1" fill="none" fill-rule="evenodd" stroke-linecap="round">
        <g id="Page-1" transform="translate(3.000000, 4.000000)" stroke="#4C753F" stroke-width="1.5">
            <path d="M1.4333,20.2888 C7.6323,31.3808 27.2643,28.9668 37.0553,22.0368 C37.3883,21.8018 37.9693,21.4438 38.5673,21.0348 C38.7383,20.9178 38.9743,21.0378 38.9673,21.2458 C38.9493,21.8308 38.6503,22.8198 38.5263,23.1498 C33.7753,35.7468 6.4433,35.3188 1.9953,25.0248" id="Stroke-1"></path>
            <path d="M39.3777,15.6516 L40.8317,17.0026 C41.4227,17.5516 41.1487,18.5396 40.3587,18.7056 L11.8867,24.6686 C11.0287,24.8486 10.1347,24.6416 9.4427,24.1036 L2.3177,18.7796 C2.0007,18.5336 2.0767,18.0346 2.4527,17.8946" id="Stroke-3"></path>
            <path d="M34.4187,15.4763 C31.2327,21.5823 1.1207,24.0763 0.7527,10.7683 C0.3387,-4.2347 45.2997,-1.7187 37.4537,13.8643" id="Stroke-5"></path>
            <path d="M29.5886,7.7581 C27.4056,12.7671 10.4636,11.3051 11.3126,8.7231 C11.9646,6.7371 19.1346,6.5641 25.3676,7.9511" id="Stroke-7"></path>
        </g>
    </g>
</svg>