<?xml version="1.0" encoding="UTF-8"?>
<svg width="48px" height="48px" viewBox="0 0 48 48" version="1.1" xmlns="http://www.w3.org/2000/svg" xmlns:xlink="http://www.w3.org/1999/xlink">
    <!-- Generator: Sketch 51.1 (57501) - http://www.bohemiancoding.com/sketch -->
    <title>coffeeICO</title>
    <desc>Created with Sketch.</desc>
    <defs></defs>
    <g id="coffeeICO" stroke="none" stroke-width="1" fill="none" fill-rule="evenodd" stroke-linecap="round">
        <g id="Page-1" transform="translate(6.000000, 0.000000)" stroke="#4C753F" stroke-width="1.5">
            <path d="M16.4697,13.8148 C19.8997,13.2798 23.9417,13.2168 26.2297,13.4078 C32.7917,13.9548 31.7237,17.3588 21.6137,17.3138 C8.6457,17.2558 8.2237,5.7898 22.2897,6.4368 C31.9697,6.8818 30.6857,0.7498 23.1027,0.7498" id="Stroke-1"></path>
            <path d="M15.122,10.7444 C23.704,8.9464 36.267,10.5694 35.604,15.6364 C35.261,18.2664 28.492,20.2624 21.975,20.3824 C16.086,20.4924 10.126,18.8874 10.126,16.8474" id="Stroke-3"></path>
            <path d="M11.8134,11.6956 C8.9914,12.7836 7.1664,14.4066 7.4014,16.5636 C7.7134,19.4236 8.4924,24.1646 8.8214,26.3496 C9.1034,28.2176 9.1474,30.8156 7.3154,31.4536 C2.6614,33.0766 -2.0506,21.4786 2.7814,19.7876 C8.9064,17.6436 5.3894,38.8066 21.6784,38.8066 C35.9774,38.8066 35.6284,26.6516 35.5094,21.3956 C35.5064,21.2296 35.5444,20.9236 35.7494,20.8596" id="Stroke-5"></path>
        </g>
    </g>
</svg>