<?xml version="1.0" encoding="UTF-8"?>
<svg width="48px" height="48px" viewBox="0 0 48 48" version="1.1" xmlns="http://www.w3.org/2000/svg" xmlns:xlink="http://www.w3.org/1999/xlink">
    <!-- Generator: Sketch 51.1 (57501) - http://www.bohemiancoding.com/sketch -->
    <title>croissantICO</title>
    <desc>Created with Sketch.</desc>
    <defs></defs>
    <g id="croissantICO" stroke="none" stroke-width="1" fill="none" fill-rule="evenodd" stroke-linecap="round">
        <g id="Page-1" transform="translate(4.000000, 6.000000)" stroke="#4C753F" stroke-width="1.5">
            <path d="M8.5677,19.9155 C6.3957,18.5745 5.1837,17.4365 4.0427,15.7605 C3.6597,15.1975 2.4507,14.3505 1.7917,16.0075 C-0.5983,22.0215 1.4837,27.1345 4.4057,27.2515 C6.2667,27.3265 7.0277,26.4265 7.9757,24.9955 C8.8927,23.6135 10.0987,22.2375 11.3797,22.0815 C12.8207,21.9055 15.9147,20.3265 13.4507,19.2155 C10.4947,17.8835 4.8027,13.1395 4.9167,11.5145 C5.0417,9.7245 6.1107,7.7235 8.6817,6.2995" id="Stroke-1"></path>
            <path d="M32.6205,19.936 C34.7335,18.613 36.0615,17.397 37.1765,15.761 C37.5585,15.197 38.7675,14.35 39.4265,16.007 C41.8165,22.022 39.7345,27.134 36.8125,27.252 C34.9515,27.327 34.1895,26.426 33.2415,24.996 C32.3255,23.613 31.1195,22.238 29.8395,22.082 C28.3975,21.906 25.3045,20.326 27.7675,19.216 C30.7245,17.883 36.4155,13.14 36.3015,11.515 C36.2075,10.16 34.6755,7.937 32.0395,6.492" id="Stroke-3"></path>
            <path d="M14.7445,23.1333 C15.6665,23.4853 16.3065,23.5473 17.7985,23.3953 C19.4355,23.2283 19.5345,21.7653 18.7995,21.1213 C15.9065,18.5913 12.6405,10.8333 12.2435,7.0183 C11.8655,3.4033 13.5055,2.0353 16.1875,1.2693 C18.7485,0.5393 22.6185,0.6123 25.0465,1.2793 C27.4815,1.9493 29.3525,3.4033 28.9745,7.0183 C28.5775,10.8333 25.3115,18.5913 22.4195,21.1213 C21.6835,21.7653 22.0655,23.1093 23.4205,23.3953 C24.0575,23.5303 24.3715,23.6083 25.6625,23.1943" id="Stroke-5"></path>
        </g>
    </g>
</svg>