<?xml version="1.0" encoding="UTF-8"?>
<svg width="48px" height="48px" viewBox="0 0 48 48" version="1.1" xmlns="http://www.w3.org/2000/svg" xmlns:xlink="http://www.w3.org/1999/xlink">
    <!-- Generator: Sketch 51.1 (57501) - http://www.bohemiancoding.com/sketch -->
    <title>kidsICO</title>
    <desc>Created with Sketch.</desc>
    <defs></defs>
    <g id="kidsICO" stroke="none" stroke-width="1" fill="none" fill-rule="evenodd" stroke-linecap="round">
        <g id="Page-1" transform="translate(2.000000, 2.000000)" stroke="#4C753F" stroke-width="1.5">
            <path d="M28.2892959,19.5779388 C28.8265408,16.0651837 29.2664388,15.4094694 29.6236837,13.7242653 C30.0507245,11.708449 32.8398061,11.905898 32.6056224,13.9869184 C32.4540918,15.3378367 31.8948061,18.2086531 31.746949,19.7524286 C31.6826633,20.421 32.5312347,20.6873265 33.0923571,19.628449 C34.0924592,17.7430408 35.5425612,14.3349796 35.8465408,13.5598776 C36.6179694,11.590898 39.5622551,12.4275306 38.7348061,14.8648776 C38.1681735,16.5326327 36.1991939,19.600898 35.5783776,21.0537551 C35.3891939,21.4973265 36.0008265,21.8279388 36.3286837,21.5845714 C37.6107245,20.6313061 39.9690918,17.7696735 40.5100102,17.0037551 C41.5661327,15.5068163 43.7233776,16.9091633 42.5717449,18.6788571 C41.8232755,19.8286531 39.7468469,22.2917143 38.3307245,23.4286531 C37.3985816,24.1771224 38.3371531,25.0807959 39.3271531,24.7740612 C40.4337857,24.4305918 41.5808265,23.3028367 42.5579694,22.4248776 C43.9401122,21.1832449 45.4737857,22.4065102 44.2679694,24.2267143 C43.2687857,25.7374286 40.4466429,28.1233469 38.1617449,30.196102 C36.3525612,31.8372245 35.3680714,32.3046735 33.8656224,32.6591633 C33.062051,32.8483469 32.1831735,34.056 32.2933776,34.7512041" id="Stroke-1"></path>
            <path d="M22.5360918,34.1413163 C25.4151735,34.2634592 26.1948673,32.457949 25.446398,31.2842755 C23.1633367,27.705398 22.1448673,23.3431531 21.6967041,19.8386633 C21.3045612,16.7814184 24.9018061,16.3066224 25.4721122,18.7650918 C26.5218061,23.2889694 28.3998673,24.042949 29.4761939,25.2570306 C29.8710918,25.7024388 30.1594592,26.2102959 30.2577245,26.9881531 C30.4735408,28.6852959 28.2474184,28.7321327 27.6128265,25.7988673" id="Stroke-3"></path>
            <path d="M15.4429898,16.956 C14.4107449,18.4951837 13.0377857,17.3114082 13.4565612,15.9862041 C13.9478878,14.4314082 15.1491122,14.1788571 16.5551327,13.2476327 C17.6691122,12.5101837 18.9125816,11.3475306 20.0339082,8.77426531 C21.0082959,6.54079592 23.8699286,7.48946939 22.9377857,10.4282449 C21.8688061,13.795898 21.0615612,15.8732449 17.8289082,19.7147755 C16.0674796,21.8077347 16.0996224,24.1863061 16.9977857,26.3894694" id="Stroke-5"></path>
            <path d="M6.78664286,11.7606122 C6.9795,11.43 6.85827551,11.0966327 6.67919388,10.8936735 C5.38062245,9.42428571 3.99664286,7.11183673 3.50990816,5.94918367 C2.69347959,4.00316327 5.34021429,2.97734694 6.11164286,4.63867347 C6.47164286,5.41377551 7.77296939,8.055 8.83092857,9.36826531 C9.22766327,9.86234694 10.1423571,9.5905102 10.0385816,8.89163265 C9.79888776,7.27071429 8.8722551,4.43846939 8.63715306,2.84969388 C8.25878571,0.303061224 11.5364388,-0.0293877551 11.9423571,2.04612245 C12.1039898,2.86806122 12.1701122,6.1677551 12.8203163,8.14959184 C13.179398,9.24244898 14.0821531,8.86959184 14.2208265,8.20193878 C14.5927653,6.39826531 14.7351122,4.33653061 14.8499082,2.84693878 C15.0106224,0.758571429 18.1183776,1.09836735 18.0504184,3.15734694 C17.9971531,4.75163265 17.762051,6.28255102 17.2312347,9.4555102" id="Stroke-7"></path>
            <path d="M8.54981633,24.5258265 C10.2680816,22.5779694 8.18706122,19.8439898 6.36502041,17.6123571 C4.41440816,15.2227653 1.67767347,12.9250102 0.917265306,11.2811327 C0.0438979592,9.39113265 1.87144898,8.33409184 2.99369388,9.41868367 C3.2967551,9.71256122 3.75685714,10.2516429 4.53930612,10.9358265" id="Stroke-9"></path>
        </g>
    </g>
</svg>