<?xml version="1.0" encoding="UTF-8"?>
<svg width="48px" height="48px" viewBox="0 0 48 48" version="1.1" xmlns="http://www.w3.org/2000/svg" xmlns:xlink="http://www.w3.org/1999/xlink">
    <!-- Generator: Sketch 51.1 (57501) - http://www.bohemiancoding.com/sketch -->
    <title>sandwichICO</title>
    <desc>Created with Sketch.</desc>
    <defs></defs>
    <g id="sandwichICO" stroke="none" stroke-width="1" fill="none" fill-rule="evenodd" stroke-linecap="round">
        <g id="Page-1" transform="translate(1.000000, 4.000000)" stroke="#4C753F" stroke-width="1.5">
            <path d="M3.55398261,28.1698435 C4.8792,29.9625391 7.60372174,31.5705391 10.2938087,31.9305391 C19.3418087,33.1409739 37.7696348,28.5444522 44.2298087,23.5889739 C47.1703304,21.3329739 46.8698087,18.9100174 46.4878957,17.2926261 C46.3084174,16.530887 45.1710261,14.6181913 42.6687652,14.0964522" id="Stroke-1"></path>
            <path d="M4.76765217,25.7808 C6.47582609,26.4204522 9.38713043,27.5933217 12.506087,27.5265391 C22.9273043,27.3042783 35.6577391,23.4058435 42.2806957,19.7651478 C44.2591304,18.6778435 43.9638261,17.7115826 43.3106087,17.066713" id="Stroke-3"></path>
            <path d="M45.316487,9.80963478 C46.2076174,9.88372174 46.8973565,10.3063304 46.5864,11.1953739 C45.6639652,13.8322435 44.3335304,13.1696348 41.8114435,14.4969391 C39.2893565,15.8242435 39.9519652,18.4788522 37.828487,19.6736348 C35.7050087,20.8684174 33.964487,18.0395478 30.6462261,18.0395478 C27.3279652,18.0395478 28.8024,21.2659826 25.4841391,22.8593739 C22.1658783,24.4517217 21.4354435,20.8016348 18.5147478,21.3327652 C15.5961391,21.8638957 15.6618783,23.5230261 12.4761391,24.5842435 C9.29144348,25.6465043 8.01109565,22.1988522 6.02013913,20.8715478 C4.02918261,19.5432 2.49213913,19.8625043 1.43196522,21.0698087 C0.438573913,22.2009391 0.601356522,23.1056348 1.80031304,24.1752" id="Stroke-5"></path>
            <path d="M5.52166957,18.3170087 C7.00445217,18.780313 8.12097391,18.9879652 11.8180174,18.8679652 C17.9411478,18.6676174 37.3404522,13.8154435 42.4555826,10.2864 C43.4260174,9.55909565 43.5136696,8.09613913 43.5136696,7.67353043 C43.5157565,3.91492174 40.3623652,2.24744348 38.1470609,1.42622609 C35.7616696,0.541356522 32.9568,0.688486957 30.7174957,1.1517913 C28.1401043,1.6850087 26.9901913,3.35353043 28.6023652,4.63387826 C34.7286261,9.49961739 37.7254957,4.67457391 29.4872348,2.15666087 C28.5220174,1.86135652 27.5808,1.62553043 25.9373217,1.80396522 C23.5540174,2.06274783 20.7648,2.6450087 18.8886261,3.59144348 C17.0134957,4.53683478 16.6795826,5.83596522 18.7352348,7.39909565 C25.1077565,12.2439652 29.0030609,9.30135652 22.1202783,5.73996522 C16.3905391,2.77544348 6.37523478,6.39109565 9.17906087,9.72187826 C13.0274087,14.2954435 19.8131478,12.8366609 12.5630609,8.32883478 C9.87401739,6.65613913 9.67575652,6.81683478 6.77593043,7.68605217 C3.65488696,8.62205217 1.14427826,11.2297043 1.45836522,13.8175304 C1.6274087,15.1980522 2.15645217,16.1236174 2.76271304,16.7601391" id="Stroke-7"></path>
        </g>
    </g>
</svg>